<?xml version="1.0" encoding="UTF-8" standalone="no"?>
<svg width="865px" height="865px" viewBox="0 0 865 865" version="1.1" xmlns="http://www.w3.org/2000/svg" xmlns:xlink="http://www.w3.org/1999/xlink">
    <!-- Generator: Sketch 50.2 (55047) - http://www.bohemiancoding.com/sketch -->
    <title>Group</title>
    <desc>Created with Sketch.</desc>
    <defs></defs>
    <g id="Page-1" stroke="none" stroke-width="1" fill="none" fill-rule="evenodd">
        <g id="Desktop" transform="translate(-80.000000, -80.000000)">
            <g id="Group" transform="translate(80.000000, 80.000000)">
                <path d="M432.5,865 C193.636846,865 0,671.363154 0,432.5 C0,193.636846 193.636846,0 432.5,0 C671.363154,0 865,193.636846 865,432.5 C865,671.363154 671.363154,865 432.5,865 Z M432.5,801.707317 C636.407571,801.707317 801.707317,636.407571 801.707317,432.5 C801.707317,228.592429 636.407571,63.2926829 432.5,63.2926829 C228.592429,63.2926829 63.2926829,228.592429 63.2926829,432.5 C63.2926829,636.407571 228.592429,801.707317 432.5,801.707317 Z" id="Oval-Copy" fill="#D54D4D" fill-rule="nonzero"></path>
                <path d="M265.058656,522.434534 L425.630736,522.434534 C442.955502,522.434534 457,536.664148 457,554.217267 C457,571.770386 442.955502,586 425.630736,586 L225.411073,586 C208.728564,586 194.96431,572.77069 194.085377,555.891768 C194.062147,555.417566 194.062147,555.417566 194.034759,554.566457 C193.900157,549.654195 194.140985,543.503506 195.030022,536.46841 C196.383355,525.75926 199.007331,515.077015 203.317569,504.78021 C209.278464,490.540121 218.062465,478.069271 230.130903,468.330769 C231.048248,467.590527 232.005842,466.902987 232.999175,466.271389 C239.114462,462.38306 244.216481,458.796082 248.494873,455.387608 C271.051638,437.417271 274.696293,424.541219 277.682454,351.546946 C277.835697,347.801047 278.535505,330.120166 278.744541,325.013395 C283.143553,217.918765 339.16706,173 425.630736,173 C442.955502,173 457,187.229614 457,204.782733 C457,222.335852 442.955502,236.565466 425.630736,236.565466 C370.478443,236.565466 344.308578,257.548051 341.428995,327.651944 C341.222509,332.696423 340.522741,350.376296 340.367158,354.179395 C338.46184,400.753347 336.542545,421.107796 330.757032,441.547199 C323.353701,467.702129 309.887539,487.340467 287.274178,505.355893 C281.61638,509.8633 275.323034,514.329728 268.201501,518.9257 C267.076732,519.953566 266.029514,521.122777 265.058656,522.434534 Z" id="Stroke-4-Copy-7" fill="#F15C5C" fill-rule="nonzero"></path>
                <path d="M362,615 C362,653.668789 391.548638,685 428,685 C464.451362,685 494,653.668789 494,615.008254 L362,615 Z" id="Fill-8-Copy-7" fill="#F15C5C"></path>
                <path d="M580.725838,505.355915 C558.115612,487.343029 544.649862,467.70774 537.245026,441.55801 C531.457945,421.121281 529.536583,400.76601 527.628524,354.209442 C527.472321,350.398092 526.770622,332.700516 526.563702,327.654238 C523.689093,257.549519 497.517397,236.565466 442.369264,236.565466 C425.044498,236.565466 411,222.335852 411,204.782733 C411,187.229614 425.044498,173 442.369264,173 C528.829703,173 584.856819,217.921659 589.248156,325.015689 C589.457447,330.119778 590.159181,347.818247 590.313033,351.572232 C593.303564,424.541088 596.950136,437.418736 619.505087,455.387586 C623.783513,458.796079 628.885546,462.383065 635.000825,466.271389 C635.994158,466.902987 636.951752,467.590527 637.869097,468.330769 C649.937535,478.069271 658.721536,490.540121 664.682431,504.78021 C668.992669,515.077015 671.616645,525.75926 672.969978,536.46841 C673.859015,543.503506 674.099843,549.654195 673.965241,554.566457 C673.937853,555.417566 673.937853,555.417566 673.914623,555.891768 C673.03569,572.77069 659.271436,586 642.588927,586 L442.369264,586 C425.044498,586 411,571.770386 411,554.217267 C411,536.664148 425.044498,522.434534 442.369264,522.434534 L602.941344,522.434534 C601.970486,521.122777 600.923268,519.953566 599.798499,518.9257 C592.676986,514.329741 586.383644,509.863319 580.725838,505.355915 Z" id="Stroke-6-Copy-7" fill="#D54D4D" fill-rule="nonzero"></path>
                <path d="M338.562008,431 C321.130792,431 307,417.120827 307,400 C307,382.879173 321.130792,369 338.562008,369 L562.437992,369 C579.869208,369 594,382.879173 594,400 C594,417.120827 579.869208,431 562.437992,431 L338.562008,431 Z" id="Stroke-10-Copy-7" fill="#F15C5C" fill-rule="nonzero"></path>
            </g>
        </g>
    </g>
</svg>